<svg xmlns="http://www.w3.org/2000/svg" width="22" height="13.377" viewBox="0 0 22 13.377">
  <g id="eye_4_" data-name="eye (4)" transform="translate(0 -98.725)">
    <path id="Path_39396" data-name="Path 39396" d="M11,98.725c-4.2,0-8.015,2.346-10.828,6.156a.9.9,0,0,0,0,1.06C2.985,109.756,6.8,112.1,11,112.1s8.015-2.346,10.828-6.156a.9.9,0,0,0,0-1.06C19.015,101.071,15.2,98.725,11,98.725Zm.3,11.4a4.721,4.721,0,1,1,4.316-4.4A4.7,4.7,0,0,1,11.3,110.124Zm-.14-2.176a2.542,2.542,0,1,1,2.327-2.373A2.513,2.513,0,0,1,11.162,107.948Z"/>
  </g>
</svg>
