<svg id="vuesax_bold_edit-2" data-name="vuesax/bold/edit-2" xmlns="http://www.w3.org/2000/svg" width="18" height="18" viewBox="0 0 18 18">
  <g id="edit-2">
    <path id="Vector" d="M14.063,1.125H.563A.567.567,0,0,1,0,.563.567.567,0,0,1,.563,0h13.5a.567.567,0,0,1,.563.563A.567.567,0,0,1,14.063,1.125Z" transform="translate(1.688 15.375)" fill="#002b5b"/>
    <path id="Vector-2" data-name="Vector" d="M5.366,1.105C3.911-.35,2.486-.387.994,1.105l-.908.908a.312.312,0,0,0-.075.3A6.1,6.1,0,0,0,4.159,6.46a.376.376,0,0,0,.09.015.3.3,0,0,0,.217-.09l.9-.907a3.1,3.1,0,0,0,1.1-2.168A3.088,3.088,0,0,0,5.366,1.105Z" transform="translate(8.899 1.505)" fill="#002b5b"/>
    <path id="Vector-3" data-name="Vector" d="M9.087,4.11C8.87,4,8.66,3.9,8.457,3.78c-.165-.1-.323-.2-.48-.315a4.529,4.529,0,0,1-.42-.323A.915.915,0,0,1,7.43,3.03a6.343,6.343,0,0,1-.772-.78.914.914,0,0,1-.113-.135A4.362,4.362,0,0,1,6.23,1.7a4.118,4.118,0,0,1-.293-.442c-.12-.2-.225-.405-.33-.615C5.5.42,5.42.2,5.345,0L.635,4.71a.9.9,0,0,0-.21.413L.02,7.995A1.537,1.537,0,0,0,.4,9.307a1.493,1.493,0,0,0,1.05.405,1.64,1.64,0,0,0,.27-.023l2.88-.4a.835.835,0,0,0,.413-.21l4.71-4.71C9.515,4.29,9.312,4.207,9.087,4.11Z" transform="translate(2.62 4.537)" fill="#002b5b"/>
    <path id="Vector-4" data-name="Vector" d="M0,0H18V18H0Z" transform="translate(18 18) rotate(180)" fill="none" opacity="0"/>
  </g>
</svg>
