<svg id="vuesax_bold_trash" data-name="vuesax/bold/trash" xmlns="http://www.w3.org/2000/svg" width="18" height="18" viewBox="0 0 18 18">
  <g id="trash">
    <path id="Vector" d="M14.118,2.985c-1.208-.12-2.415-.21-3.63-.277V2.7l-.165-.975C10.21,1.035,10.045,0,8.29,0H6.325C4.578,0,4.413.99,4.293,1.717l-.158.96c-.7.045-1.395.09-2.092.158l-1.53.15A.561.561,0,1,0,.618,4.1l1.53-.15a59.8,59.8,0,0,1,11.865.157h.06a.568.568,0,0,0,.563-.51A.575.575,0,0,0,14.118,2.985Z" transform="translate(1.685 0.938)" fill="#ff4748"/>
    <path id="Vector-2" data-name="Vector" d="M11.1.293A.948.948,0,0,0,10.419,0H.939A.936.936,0,0,0,.257.293.966.966,0,0,0,0,1l.465,7.7c.083,1.14.187,2.565,2.8,2.565H8.087c2.617,0,2.723-1.418,2.805-2.565l.465-7.687A.972.972,0,0,0,11.1.293ZM6.924,7.5h-2.5a.563.563,0,1,1,0-1.125h2.5a.563.563,0,0,1,0,1.125Zm.63-3H3.8a.563.563,0,0,1,0-1.125h3.75a.563.563,0,0,1,0,1.125Z" transform="translate(3.321 5.813)" fill="#ff4748"/>
    <path id="Vector-3" data-name="Vector" d="M0,0H18V18H0Z" transform="translate(18 18) rotate(180)" fill="none" opacity="0"/>
  </g>
</svg>
