<svg xmlns="http://www.w3.org/2000/svg" xmlns:xlink="http://www.w3.org/1999/xlink" width="40" height="40" viewBox="0 0 40 40">
  <defs>
    <filter id="Rectangle_3548">
      <feOffset dx="1" dy="1" input="SourceAlpha"/>
      <feGaussianBlur stdDeviation="0.5" result="blur"/>
      <feFlood flood-opacity="0.239" result="color"/>
      <feComposite operator="out" in="SourceGraphic" in2="blur"/>
      <feComposite operator="in" in="color"/>
      <feComposite operator="in" in2="SourceGraphic"/>
    </filter>
    <filter id="Rectangle_3553">
      <feOffset dx="-1" dy="1" input="SourceAlpha"/>
      <feGaussianBlur stdDeviation="0.5" result="blur-2"/>
      <feFlood flood-opacity="0.239" result="color-2"/>
      <feComposite operator="out" in="SourceGraphic" in2="blur-2"/>
      <feComposite operator="in" in="color-2"/>
      <feComposite operator="in" in2="SourceGraphic"/>
    </filter>
    <filter id="Rectangle_3549">
      <feOffset dx="1" dy="1" input="SourceAlpha"/>
      <feGaussianBlur stdDeviation="0.5" result="blur-3"/>
      <feFlood flood-opacity="0.239" result="color-3"/>
      <feComposite operator="out" in="SourceGraphic" in2="blur-3"/>
      <feComposite operator="in" in="color-3"/>
      <feComposite operator="in" in2="SourceGraphic"/>
    </filter>
    <filter id="Rectangle_3554">
      <feOffset dx="-1" dy="1" input="SourceAlpha"/>
      <feGaussianBlur stdDeviation="0.5" result="blur-4"/>
      <feFlood flood-opacity="0.239" result="color-4"/>
      <feComposite operator="out" in="SourceGraphic" in2="blur-4"/>
      <feComposite operator="in" in="color-4"/>
      <feComposite operator="in" in2="SourceGraphic"/>
    </filter>
    <filter id="Path_35843" x="7.994" y="15.778" width="24.011" height="24.012" filterUnits="userSpaceOnUse">
      <feOffset dx="-1" dy="1" input="SourceAlpha"/>
      <feGaussianBlur stdDeviation="1" result="blur-5"/>
      <feFlood flood-opacity="0.2" result="color-5"/>
      <feComposite operator="out" in="SourceGraphic" in2="blur-5"/>
      <feComposite operator="in" in="color-5"/>
      <feComposite operator="in" in2="SourceGraphic"/>
    </filter>
    <filter id="Path_35844" x="7.994" y="15.778" width="24.011" height="24.012" filterUnits="userSpaceOnUse">
      <feOffset dx="1" dy="1" input="SourceAlpha"/>
      <feGaussianBlur stdDeviation="1" result="blur-6"/>
      <feFlood flood-opacity="0.2" result="color-6"/>
      <feComposite operator="out" in="SourceGraphic" in2="blur-6"/>
      <feComposite operator="in" in="color-6"/>
      <feComposite operator="in" in2="SourceGraphic"/>
    </filter>
    <filter id="Rectangle_3552">
      <feOffset dx="1" dy="1" input="SourceAlpha"/>
      <feGaussianBlur stdDeviation="0.5" result="blur-7"/>
      <feFlood flood-opacity="0.2" result="color-7"/>
      <feComposite operator="out" in="SourceGraphic" in2="blur-7"/>
      <feComposite operator="in" in="color-7"/>
      <feComposite operator="in" in2="SourceGraphic"/>
    </filter>
  </defs>
  <g id="logo" transform="translate(5716.284 5877.269)">
    <g data-type="innerShadowGroup">
      <rect id="Rectangle_3548-2" data-name="Rectangle 3548" width="28.284" height="28.284" rx="6" transform="translate(-5716.284 -5857.269) rotate(-45)" fill="#fff"/>
      <g transform="matrix(1, 0, 0, 1, -5716.28, -5877.27)" filter="url(#Rectangle_3548)">
        <rect id="Rectangle_3548-3" data-name="Rectangle 3548" width="28.284" height="28.284" rx="6" transform="translate(0 20) rotate(-45)" fill="#fff"/>
      </g>
      <g id="Rectangle_3548-4" data-name="Rectangle 3548" transform="translate(-5716.284 -5857.269) rotate(-45)" fill="none" stroke="#10b5ee" stroke-width="1">
        <rect width="28.284" height="28.284" rx="6" stroke="none"/>
        <rect x="0.5" y="0.5" width="27.284" height="27.284" rx="5.5" fill="none"/>
      </g>
    </g>
    <g data-type="innerShadowGroup">
      <g transform="matrix(1, 0, 0, 1, -5716.28, -5877.27)" filter="url(#Rectangle_3553)">
        <rect id="Rectangle_3553-2" data-name="Rectangle 3553" width="28.284" height="28.284" rx="6" transform="translate(40 20) rotate(135)" fill="#fff"/>
      </g>
      <g id="Rectangle_3553-3" data-name="Rectangle 3553" transform="translate(-5676.284 -5857.269) rotate(135)" fill="none" stroke="#1a1a1a" stroke-width="1">
        <rect width="28.284" height="28.284" rx="6" stroke="none"/>
        <rect x="0.5" y="0.5" width="27.284" height="27.284" rx="5.5" fill="none"/>
      </g>
    </g>
    <g data-type="innerShadowGroup">
      <rect id="Rectangle_3549-2" data-name="Rectangle 3549" width="24.038" height="24.038" rx="5" transform="translate(-5713.282 -5857.269) rotate(-45)" fill="#fff"/>
      <g transform="matrix(1, 0, 0, 1, -5716.28, -5877.27)" filter="url(#Rectangle_3549)">
        <rect id="Rectangle_3549-3" data-name="Rectangle 3549" width="24.038" height="24.038" rx="5" transform="translate(3 20) rotate(-45)" fill="#fff"/>
      </g>
      <g id="Rectangle_3549-4" data-name="Rectangle 3549" transform="translate(-5713.282 -5857.269) rotate(-45)" fill="none" stroke="#1a1a1a" stroke-width="1">
        <rect width="24.038" height="24.038" rx="5" stroke="none"/>
        <rect x="0.5" y="0.5" width="23.038" height="23.038" rx="4.5" fill="none"/>
      </g>
    </g>
    <g data-type="innerShadowGroup">
      <g transform="matrix(1, 0, 0, 1, -5716.28, -5877.27)" filter="url(#Rectangle_3554)">
        <rect id="Rectangle_3554-2" data-name="Rectangle 3554" width="24.038" height="24.038" rx="5" transform="translate(3 20) rotate(-45)" fill="#fff"/>
      </g>
      <g id="Rectangle_3554-3" data-name="Rectangle 3554" transform="translate(-5713.282 -5857.269) rotate(-45)" fill="none" stroke="#1a1a1a" stroke-width="1">
        <rect width="24.038" height="24.038" rx="5" stroke="none"/>
        <rect x="0.5" y="0.5" width="23.038" height="23.038" rx="4.5" fill="none"/>
      </g>
    </g>
    <g data-type="innerShadowGroup">
      <g id="Path_35843-2" data-name="Path 35843" transform="translate(-5708.278 -5849.484) rotate(-45)" fill="#fff">
        <path d="M 3.986018419265747 16.47022819519043 L 3.98369836807251 16.47022819519043 C 3.050078392028809 16.47022819519043 2.172738313674927 16.1068286895752 1.513288378715515 15.44696807861328 C 0.8538083434104919 14.78707790374756 0.4909483790397644 13.90945816040039 0.4915583729743958 12.97575855255127 L 0.4973983764648438 3.99772834777832 C 0.4986583590507507 2.068898439407349 2.068898439407349 0.4986583590507507 3.99772834777832 0.4973983764648438 L 12.97575855255127 0.4915583729743958 C 13.91170883178711 0.4915583729743958 14.78905868530273 0.8549583554267883 15.44849872589111 1.514808416366577 C 16.10797882080078 2.174698352813721 16.47082901000977 3.052318334579468 16.47022819519043 3.986028432846069 L 16.46437835693359 12.96404838562012 C 16.4631175994873 14.89287853240967 14.89287853240967 16.4631175994873 12.96404838562012 16.46437835693359 L 3.986018419265747 16.47022819519043 Z" stroke="none"/>
        <path d="M 12.97607803344727 0.9915580749511719 L 3.998048782348633 0.9973983764648438 C 2.344568252563477 0.9984779357910156 0.9984779357910156 2.344568252563477 0.9973983764648438 3.998048782348633 L 0.9915580749511719 12.97607803344727 C 0.9910383224487305 13.77615833282471 1.301918029785156 14.52814865112305 1.866948127746582 15.09352874755859 C 2.431948661804199 15.65887832641602 3.183688163757324 15.97022819519043 3.985698699951172 15.97022819519043 L 12.9637279510498 15.96437835693359 C 14.61720848083496 15.96329879760742 15.96329879760742 14.61720848083496 15.96437835693359 12.9637279510498 L 15.97022819519043 3.985698699951172 C 15.97074794769287 3.18561840057373 15.65985870361328 2.433628082275391 15.09483814239502 1.868258476257324 C 14.52983856201172 1.302907943725586 13.77809810638428 0.9915580749511719 12.97808837890625 0.9915580749511719 L 12.97607803344727 0.9915580749511719 M 12.97809219360352 -0.008441925048828125 C 15.18467712402344 -0.008441925048828125 16.97165870666504 1.779457092285156 16.97022819519043 3.986348152160645 L 16.96437835693359 12.96437835693359 C 16.96293830871582 15.17207813262939 15.17207813262939 16.96293830871582 12.96437835693359 16.96437835693359 L 3.986348152160645 16.97022819519043 C 1.778135299682617 16.97165679931641 -0.009881973266601562 15.18312835693359 -0.008441925048828125 12.97542858123779 L -0.00260162353515625 3.997398376464844 C -0.001161575317382812 1.789698600769043 1.789698600769043 -0.001161575317382812 3.997398376464844 -0.00260162353515625 L 12.97542858123779 -0.008441925048828125 C 12.97623634338379 -0.008441925048828125 12.97728443145752 -0.008441925048828125 12.97809219360352 -0.008441925048828125 Z" stroke="none"/>
      </g>
      <g transform="matrix(1, 0, 0, 1, -5716.28, -5877.27)" filter="url(#Path_35843)">
        <g id="Path_35843-3" data-name="Path 35843" transform="translate(8.01 27.78) rotate(-45)" fill="#fff">
          <path d="M 3.986018419265747 16.47022819519043 L 3.98369836807251 16.47022819519043 C 3.050078392028809 16.47022819519043 2.172738313674927 16.1068286895752 1.513288378715515 15.44696807861328 C 0.8538083434104919 14.78707790374756 0.4909483790397644 13.90945816040039 0.4915583729743958 12.97575855255127 L 0.4973983764648438 3.99772834777832 C 0.4986583590507507 2.068898439407349 2.068898439407349 0.4986583590507507 3.99772834777832 0.4973983764648438 L 12.97575855255127 0.4915583729743958 C 13.91170883178711 0.4915583729743958 14.78905868530273 0.8549583554267883 15.44849872589111 1.514808416366577 C 16.10797882080078 2.174698352813721 16.47082901000977 3.052318334579468 16.47022819519043 3.986028432846069 L 16.46437835693359 12.96404838562012 C 16.4631175994873 14.89287853240967 14.89287853240967 16.4631175994873 12.96404838562012 16.46437835693359 L 3.986018419265747 16.47022819519043 Z" stroke="none"/>
          <path d="M 12.97607803344727 0.9915580749511719 L 3.998048782348633 0.9973983764648438 C 2.344568252563477 0.9984779357910156 0.9984779357910156 2.344568252563477 0.9973983764648438 3.998048782348633 L 0.9915580749511719 12.97607803344727 C 0.9910383224487305 13.77615833282471 1.301918029785156 14.52814865112305 1.866948127746582 15.09352874755859 C 2.431948661804199 15.65887832641602 3.183688163757324 15.97022819519043 3.985698699951172 15.97022819519043 L 12.9637279510498 15.96437835693359 C 14.61720848083496 15.96329879760742 15.96329879760742 14.61720848083496 15.96437835693359 12.9637279510498 L 15.97022819519043 3.985698699951172 C 15.97074794769287 3.18561840057373 15.65985870361328 2.433628082275391 15.09483814239502 1.868258476257324 C 14.52983856201172 1.302907943725586 13.77809810638428 0.9915580749511719 12.97808837890625 0.9915580749511719 L 12.97607803344727 0.9915580749511719 M 12.97809219360352 -0.008441925048828125 C 15.18467712402344 -0.008441925048828125 16.97165870666504 1.779457092285156 16.97022819519043 3.986348152160645 L 16.96437835693359 12.96437835693359 C 16.96293830871582 15.17207813262939 15.17207813262939 16.96293830871582 12.96437835693359 16.96437835693359 L 3.986348152160645 16.97022819519043 C 1.778135299682617 16.97165679931641 -0.009881973266601562 15.18312835693359 -0.008441925048828125 12.97542858123779 L -0.00260162353515625 3.997398376464844 C -0.001161575317382812 1.789698600769043 1.789698600769043 -0.001161575317382812 3.997398376464844 -0.00260162353515625 L 12.97542858123779 -0.008441925048828125 C 12.97623634338379 -0.008441925048828125 12.97728443145752 -0.008441925048828125 12.97809219360352 -0.008441925048828125 Z" stroke="none"/>
        </g>
      </g>
      <g id="Path_35843-4" data-name="Path 35843" transform="translate(-5708.278 -5849.484) rotate(-45)" fill="none">
        <path d="M 3.986018419265747 16.47022819519043 L 3.98369836807251 16.47022819519043 C 3.050078392028809 16.47022819519043 2.172738313674927 16.1068286895752 1.513288378715515 15.44696807861328 C 0.8538083434104919 14.78707790374756 0.4909483790397644 13.90945816040039 0.4915583729743958 12.97575855255127 L 0.4973983764648438 3.99772834777832 C 0.4986583590507507 2.068898439407349 2.068898439407349 0.4986583590507507 3.99772834777832 0.4973983764648438 L 12.97575855255127 0.4915583729743958 C 13.91170883178711 0.4915583729743958 14.78905868530273 0.8549583554267883 15.44849872589111 1.514808416366577 C 16.10797882080078 2.174698352813721 16.47082901000977 3.052318334579468 16.47022819519043 3.986028432846069 L 16.46437835693359 12.96404838562012 C 16.4631175994873 14.89287853240967 14.89287853240967 16.4631175994873 12.96404838562012 16.46437835693359 L 3.986018419265747 16.47022819519043 Z" stroke="none"/>
        <path d="M 12.97607803344727 0.9915580749511719 L 3.998048782348633 0.9973983764648438 C 2.344568252563477 0.9984779357910156 0.9984779357910156 2.344568252563477 0.9973983764648438 3.998048782348633 L 0.9915580749511719 12.97607803344727 C 0.9910383224487305 13.77615833282471 1.301918029785156 14.52814865112305 1.866948127746582 15.09352874755859 C 2.431948661804199 15.65887832641602 3.183688163757324 15.97022819519043 3.985698699951172 15.97022819519043 L 12.9637279510498 15.96437835693359 C 14.61720848083496 15.96329879760742 15.96329879760742 14.61720848083496 15.96437835693359 12.9637279510498 L 15.97022819519043 3.985698699951172 C 15.97074794769287 3.18561840057373 15.65985870361328 2.433628082275391 15.09483814239502 1.868258476257324 C 14.52983856201172 1.302907943725586 13.77809810638428 0.9915580749511719 12.97808837890625 0.9915580749511719 L 12.97607803344727 0.9915580749511719 M 12.97809219360352 -0.008441925048828125 C 15.18467712402344 -0.008441925048828125 16.97165870666504 1.779457092285156 16.97022819519043 3.986348152160645 L 16.96437835693359 12.96437835693359 C 16.96293830871582 15.17207813262939 15.17207813262939 16.96293830871582 12.96437835693359 16.96437835693359 L 3.986348152160645 16.97022819519043 C 1.778135299682617 16.97165679931641 -0.009881973266601562 15.18312835693359 -0.008441925048828125 12.97542858123779 L -0.00260162353515625 3.997398376464844 C -0.001161575317382812 1.789698600769043 1.789698600769043 -0.001161575317382812 3.997398376464844 -0.00260162353515625 L 12.97542858123779 -0.008441925048828125 C 12.97623634338379 -0.008441925048828125 12.97728443145752 -0.008441925048828125 12.97809219360352 -0.008441925048828125 Z" stroke="none" fill="#1a1a1a"/>
      </g>
    </g>
    <g data-type="innerShadowGroup">
      <g transform="matrix(1, 0, 0, 1, -5716.28, -5877.27)" filter="url(#Path_35844)">
        <g id="Path_35844-2" data-name="Path 35844" transform="translate(8.01 27.78) rotate(-45)" fill="#fff">
          <path d="M4,0l8.978-.006A3.991,3.991,0,0,1,16.97,3.986l-.006,8.978a4,4,0,0,1-4,4l-8.978.006A3.991,3.991,0,0,1-.008,12.975L0,4A4,4,0,0,1,4,0Z" stroke="none"/>
          <path d="M 12.97607803344727 0.9915580749511719 L 3.998048782348633 0.9973983764648438 C 2.344568252563477 0.9984779357910156 0.9984779357910156 2.344568252563477 0.9973983764648438 3.998048782348633 L 0.9915580749511719 12.97607803344727 C 0.9910383224487305 13.77615833282471 1.301918029785156 14.52814865112305 1.866948127746582 15.09352874755859 C 2.431948661804199 15.65887832641602 3.183688163757324 15.97022819519043 3.985698699951172 15.97022819519043 L 12.9637279510498 15.96437835693359 C 14.61720848083496 15.96329879760742 15.96329879760742 14.61720848083496 15.96437835693359 12.9637279510498 L 15.97022819519043 3.985698699951172 C 15.97074794769287 3.18561840057373 15.65985870361328 2.433628082275391 15.09483814239502 1.868258476257324 C 14.52983856201172 1.302907943725586 13.77809810638428 0.9915580749511719 12.97808837890625 0.9915580749511719 L 12.97607803344727 0.9915580749511719 M 12.97809219360352 -0.008441925048828125 C 15.18467712402344 -0.008441925048828125 16.97165870666504 1.779457092285156 16.97022819519043 3.986348152160645 L 16.96437835693359 12.96437835693359 C 16.96293830871582 15.17207813262939 15.17207813262939 16.96293830871582 12.96437835693359 16.96437835693359 L 3.986348152160645 16.97022819519043 C 1.778135299682617 16.97165679931641 -0.009881973266601562 15.18312835693359 -0.008441925048828125 12.97542858123779 L -0.00260162353515625 3.997398376464844 C -0.001161575317382812 1.789698600769043 1.789698600769043 -0.001161575317382812 3.997398376464844 -0.00260162353515625 L 12.97542858123779 -0.008441925048828125 C 12.97623634338379 -0.008441925048828125 12.97728443145752 -0.008441925048828125 12.97809219360352 -0.008441925048828125 Z" stroke="none"/>
        </g>
      </g>
      <g id="Path_35844-3" data-name="Path 35844" transform="translate(-5708.278 -5849.484) rotate(-45)" fill="none">
        <path d="M4,0l8.978-.006A3.991,3.991,0,0,1,16.97,3.986l-.006,8.978a4,4,0,0,1-4,4l-8.978.006A3.991,3.991,0,0,1-.008,12.975L0,4A4,4,0,0,1,4,0Z" stroke="none"/>
        <path d="M 12.97607803344727 0.9915580749511719 L 3.998048782348633 0.9973983764648438 C 2.344568252563477 0.9984779357910156 0.9984779357910156 2.344568252563477 0.9973983764648438 3.998048782348633 L 0.9915580749511719 12.97607803344727 C 0.9910383224487305 13.77615833282471 1.301918029785156 14.52814865112305 1.866948127746582 15.09352874755859 C 2.431948661804199 15.65887832641602 3.183688163757324 15.97022819519043 3.985698699951172 15.97022819519043 L 12.9637279510498 15.96437835693359 C 14.61720848083496 15.96329879760742 15.96329879760742 14.61720848083496 15.96437835693359 12.9637279510498 L 15.97022819519043 3.985698699951172 C 15.97074794769287 3.18561840057373 15.65985870361328 2.433628082275391 15.09483814239502 1.868258476257324 C 14.52983856201172 1.302907943725586 13.77809810638428 0.9915580749511719 12.97808837890625 0.9915580749511719 L 12.97607803344727 0.9915580749511719 M 12.97809219360352 -0.008441925048828125 C 15.18467712402344 -0.008441925048828125 16.97165870666504 1.779457092285156 16.97022819519043 3.986348152160645 L 16.96437835693359 12.96437835693359 C 16.96293830871582 15.17207813262939 15.17207813262939 16.96293830871582 12.96437835693359 16.96437835693359 L 3.986348152160645 16.97022819519043 C 1.778135299682617 16.97165679931641 -0.009881973266601562 15.18312835693359 -0.008441925048828125 12.97542858123779 L -0.00260162353515625 3.997398376464844 C -0.001161575317382812 1.789698600769043 1.789698600769043 -0.001161575317382812 3.997398376464844 -0.00260162353515625 L 12.97542858123779 -0.008441925048828125 C 12.97623634338379 -0.008441925048828125 12.97728443145752 -0.008441925048828125 12.97809219360352 -0.008441925048828125 Z" stroke="none" fill="#1a1a1a"/>
      </g>
    </g>
    <g id="Rectangle_3551" data-name="Rectangle 3551" transform="translate(-5705.912 -5847.102) rotate(-45)" fill="#1a1a1a" stroke="#1a1a1a" stroke-width="1">
      <rect width="13.615" height="13.615" rx="2" stroke="none"/>
      <rect x="0.5" y="0.5" width="12.615" height="12.615" rx="1.5" fill="none"/>
    </g>
    <g data-type="innerShadowGroup">
      <g transform="matrix(1, 0, 0, 1, -5716.28, -5877.27)" filter="url(#Rectangle_3552)">
        <rect id="Rectangle_3552-2" data-name="Rectangle 3552" width="13.615" height="13.615" rx="3" transform="translate(10.37 27.78) rotate(-45)" fill="#fff"/>
      </g>
      <g id="Rectangle_3552-3" data-name="Rectangle 3552" transform="translate(-5705.912 -5849.484) rotate(-45)" fill="none" stroke="#1a1a1a" stroke-width="1">
        <rect width="13.615" height="13.615" rx="3" stroke="none"/>
        <rect x="0.5" y="0.5" width="12.615" height="12.615" rx="2.5" fill="none"/>
      </g>
    </g>
  </g>
</svg>
