<svg xmlns="http://www.w3.org/2000/svg" width="30" height="30" viewBox="0 0 30 30">
  <g id="Group_43805" data-name="Group 43805" transform="translate(14475 19670)">
    <rect id="Rectangle_14270" data-name="Rectangle 14270" width="30" height="30" transform="translate(-14475 -19670)" fill="none"/>
    <g id="notification_4_" data-name="notification (4)" transform="translate(-14473.998 -19670)">
      <path id="Path_71678" data-name="Path 71678" d="M139.557,451.75A4.7,4.7,0,0,0,144.15,448h-9.185A4.7,4.7,0,0,0,139.557,451.75Zm0,0" transform="translate(-127.058 -421.751)" fill="#858585"/>
      <path id="Path_71679" data-name="Path 71679" d="M21.263,55.166h-.015a8.76,8.76,0,0,1-8.75-8.75,8.672,8.672,0,0,1,.836-3.708c-.275-.026-.554-.042-.836-.042a8.75,8.75,0,0,0-8.75,8.75V54.9A8.381,8.381,0,0,1,.764,61.318a2.187,2.187,0,0,0-.688,2.245,2.293,2.293,0,0,0,2.248,1.6H22.667a2.291,2.291,0,0,0,2.285-1.734,2.191,2.191,0,0,0-.746-2.14A8.317,8.317,0,0,1,21.263,55.166Zm0,0" transform="translate(0 -40.168)" fill="#858585"/>
      <path id="Path_71680" data-name="Path 71680" d="M268.511,6.25A6.25,6.25,0,1,1,262.261,0,6.25,6.25,0,0,1,268.511,6.25Zm0,0" transform="translate(-241.013)" fill="#858585"/>
    </g>
  </g>
</svg>
